<svg width="691" height="231" viewBox="0 0 691 231" fill="none" xmlns="http://www.w3.org/2000/svg">
<g clip-path="url(#clip0_140_18)">
<mask id="path-1-outside-1_140_18" maskUnits="userSpaceOnUse" x="89" y="123.573" width="568" height="77" fill="black">
<rect fill="white" x="89" y="123.573" width="568" height="77"/>
<path d="M108.9 161.823C108.9 164.206 109.058 166.398 109.375 168.398C109.708 170.398 110.192 172.206 110.825 173.823C111.458 175.44 112.25 176.865 113.2 178.098C114.15 179.315 115.233 180.331 116.45 181.148C117.683 181.965 119.058 182.581 120.575 182.998C122.092 183.415 123.75 183.623 125.55 183.623C127.683 183.623 129.592 183.306 131.275 182.673C132.975 182.04 134.458 181.09 135.725 179.823C136.992 178.54 138.042 176.948 138.875 175.048C139.725 173.131 140.35 170.89 140.75 168.323H159.075C158.425 173.106 157.175 177.398 155.325 181.198C153.475 184.981 151.1 188.198 148.2 190.848C145.317 193.498 141.958 195.531 138.125 196.948C134.308 198.365 130.108 199.073 125.525 199.073C122.108 199.073 118.858 198.673 115.775 197.873C112.708 197.073 109.867 195.923 107.25 194.423C104.65 192.923 102.3 191.09 100.2 188.923C98.1167 186.74 96.3417 184.273 94.875 181.523C93.4083 178.756 92.275 175.723 91.475 172.423C90.6917 169.123 90.3 165.59 90.3 161.823C90.3 158.056 90.6917 154.523 91.475 151.223C92.275 147.923 93.4083 144.898 94.875 142.148C96.3417 139.381 98.1167 136.915 100.2 134.748C102.3 132.565 104.65 130.723 107.25 129.223C109.867 127.723 112.708 126.573 115.775 125.773C118.858 124.973 122.108 124.573 125.525 124.573C130.108 124.573 134.308 125.281 138.125 126.698C141.958 128.115 145.317 130.148 148.2 132.798C151.1 135.448 153.475 138.673 155.325 142.473C157.175 146.256 158.425 150.54 159.075 155.323H140.75C140.35 152.756 139.725 150.523 138.875 148.623C138.042 146.706 136.992 145.115 135.725 143.848C134.458 142.565 132.975 141.606 131.275 140.973C129.592 140.34 127.683 140.023 125.55 140.023C123.75 140.023 122.092 140.231 120.575 140.648C119.058 141.065 117.683 141.681 116.45 142.498C115.233 143.315 114.15 144.34 113.2 145.573C112.25 146.79 111.458 148.206 110.825 149.823C110.192 151.44 109.708 153.248 109.375 155.248C109.058 157.248 108.9 159.44 108.9 161.823ZM232.085 126.073V197.573H213.635V168.223L214.435 169.623H186.935L188.035 168.223V197.573H169.585V126.073H188.035V155.623L186.935 154.173H214.435L213.635 155.623V126.073H232.085ZM259.04 197.573H239.765L263.415 126.073H288.765L312.065 197.573H292.39L274.515 132.123H277.24L259.04 197.573ZM255.115 182.948V168.348H299.015V182.948H255.115ZM386.295 126.073V197.573H361.195L337.295 143.673L337.42 143.648V197.573H319.82V126.073H346.42L368.82 176.223L368.695 176.273V126.073H386.295ZM463.853 126.073V197.573H438.753L414.853 143.673L414.978 143.648V197.573H397.378V126.073H423.978L446.378 176.223L446.253 176.273V126.073H463.853ZM474.937 126.073H524.887V141.373H492.187L493.387 140.123V155.998L492.187 154.748H522.037V168.998H492.187L493.387 167.748V183.523L492.187 182.273H525.737V197.573H474.937V126.073ZM535.308 126.073H553.758V183.523L552.558 182.273H584.108V197.573H535.308V126.073ZM592.683 149.848V149.723C592.683 145.706 593.349 142.14 594.683 139.023C596.016 135.89 597.958 133.256 600.508 131.123C603.074 128.973 606.224 127.348 609.958 126.248C613.691 125.131 617.966 124.573 622.783 124.573C627.266 124.573 631.333 125.048 634.983 125.998C638.649 126.931 641.783 128.265 644.383 129.998C646.983 131.731 648.991 133.823 650.408 136.273C651.824 138.723 652.533 141.44 652.533 144.423C652.533 146.806 652.091 148.99 651.208 150.973C650.324 152.956 649.108 154.673 647.558 156.123C646.008 157.556 644.149 158.681 641.983 159.498C639.833 160.298 637.474 160.698 634.908 160.698V160.523C638.174 160.523 641.108 160.915 643.708 161.698C646.324 162.481 648.533 163.598 650.333 165.048C652.149 166.498 653.541 168.273 654.508 170.373C655.491 172.456 655.983 174.806 655.983 177.423C655.983 180.706 655.233 183.681 653.733 186.348C652.249 188.998 650.124 191.273 647.358 193.173C644.608 195.056 641.291 196.515 637.408 197.548C633.524 198.565 629.191 199.073 624.408 199.073C619.341 199.073 614.841 198.49 610.908 197.323C606.991 196.156 603.674 194.448 600.958 192.198C598.258 189.948 596.199 187.181 594.783 183.898C593.383 180.615 592.683 176.856 592.683 172.623V172.498H610.383V173.248C610.383 174.815 610.708 176.24 611.358 177.523C612.024 178.79 612.958 179.881 614.158 180.798C615.358 181.698 616.799 182.398 618.483 182.898C620.183 183.381 622.083 183.623 624.183 183.623C626.216 183.623 628.091 183.39 629.808 182.923C631.524 182.456 633.008 181.815 634.258 180.998C635.508 180.165 636.483 179.181 637.183 178.048C637.883 176.898 638.233 175.648 638.233 174.298C638.233 172.231 637.324 170.715 635.508 169.748C633.691 168.781 630.841 168.298 626.958 168.298H615.033V154.248H626.133C627.566 154.248 628.833 154.115 629.933 153.848C631.049 153.581 631.991 153.198 632.758 152.698C633.524 152.181 634.099 151.556 634.483 150.823C634.883 150.073 635.083 149.223 635.083 148.273C635.083 147.04 634.774 145.923 634.158 144.923C633.541 143.906 632.674 143.04 631.558 142.323C630.458 141.59 629.124 141.023 627.558 140.623C626.008 140.223 624.291 140.023 622.408 140.023C620.508 140.023 618.808 140.231 617.308 140.648C615.824 141.065 614.566 141.673 613.533 142.473C612.516 143.273 611.733 144.248 611.183 145.398C610.649 146.548 610.383 147.865 610.383 149.348V149.848H592.683Z"/>
</mask>
<path d="M108.9 161.823C108.9 164.206 109.058 166.398 109.375 168.398C109.708 170.398 110.192 172.206 110.825 173.823C111.458 175.44 112.25 176.865 113.2 178.098C114.15 179.315 115.233 180.331 116.45 181.148C117.683 181.965 119.058 182.581 120.575 182.998C122.092 183.415 123.75 183.623 125.55 183.623C127.683 183.623 129.592 183.306 131.275 182.673C132.975 182.04 134.458 181.09 135.725 179.823C136.992 178.54 138.042 176.948 138.875 175.048C139.725 173.131 140.35 170.89 140.75 168.323H159.075C158.425 173.106 157.175 177.398 155.325 181.198C153.475 184.981 151.1 188.198 148.2 190.848C145.317 193.498 141.958 195.531 138.125 196.948C134.308 198.365 130.108 199.073 125.525 199.073C122.108 199.073 118.858 198.673 115.775 197.873C112.708 197.073 109.867 195.923 107.25 194.423C104.65 192.923 102.3 191.09 100.2 188.923C98.1167 186.74 96.3417 184.273 94.875 181.523C93.4083 178.756 92.275 175.723 91.475 172.423C90.6917 169.123 90.3 165.59 90.3 161.823C90.3 158.056 90.6917 154.523 91.475 151.223C92.275 147.923 93.4083 144.898 94.875 142.148C96.3417 139.381 98.1167 136.915 100.2 134.748C102.3 132.565 104.65 130.723 107.25 129.223C109.867 127.723 112.708 126.573 115.775 125.773C118.858 124.973 122.108 124.573 125.525 124.573C130.108 124.573 134.308 125.281 138.125 126.698C141.958 128.115 145.317 130.148 148.2 132.798C151.1 135.448 153.475 138.673 155.325 142.473C157.175 146.256 158.425 150.54 159.075 155.323H140.75C140.35 152.756 139.725 150.523 138.875 148.623C138.042 146.706 136.992 145.115 135.725 143.848C134.458 142.565 132.975 141.606 131.275 140.973C129.592 140.34 127.683 140.023 125.55 140.023C123.75 140.023 122.092 140.231 120.575 140.648C119.058 141.065 117.683 141.681 116.45 142.498C115.233 143.315 114.15 144.34 113.2 145.573C112.25 146.79 111.458 148.206 110.825 149.823C110.192 151.44 109.708 153.248 109.375 155.248C109.058 157.248 108.9 159.44 108.9 161.823ZM232.085 126.073V197.573H213.635V168.223L214.435 169.623H186.935L188.035 168.223V197.573H169.585V126.073H188.035V155.623L186.935 154.173H214.435L213.635 155.623V126.073H232.085ZM259.04 197.573H239.765L263.415 126.073H288.765L312.065 197.573H292.39L274.515 132.123H277.24L259.04 197.573ZM255.115 182.948V168.348H299.015V182.948H255.115ZM386.295 126.073V197.573H361.195L337.295 143.673L337.42 143.648V197.573H319.82V126.073H346.42L368.82 176.223L368.695 176.273V126.073H386.295ZM463.853 126.073V197.573H438.753L414.853 143.673L414.978 143.648V197.573H397.378V126.073H423.978L446.378 176.223L446.253 176.273V126.073H463.853ZM474.937 126.073H524.887V141.373H492.187L493.387 140.123V155.998L492.187 154.748H522.037V168.998H492.187L493.387 167.748V183.523L492.187 182.273H525.737V197.573H474.937V126.073ZM535.308 126.073H553.758V183.523L552.558 182.273H584.108V197.573H535.308V126.073ZM592.683 149.848V149.723C592.683 145.706 593.349 142.14 594.683 139.023C596.016 135.89 597.958 133.256 600.508 131.123C603.074 128.973 606.224 127.348 609.958 126.248C613.691 125.131 617.966 124.573 622.783 124.573C627.266 124.573 631.333 125.048 634.983 125.998C638.649 126.931 641.783 128.265 644.383 129.998C646.983 131.731 648.991 133.823 650.408 136.273C651.824 138.723 652.533 141.44 652.533 144.423C652.533 146.806 652.091 148.99 651.208 150.973C650.324 152.956 649.108 154.673 647.558 156.123C646.008 157.556 644.149 158.681 641.983 159.498C639.833 160.298 637.474 160.698 634.908 160.698V160.523C638.174 160.523 641.108 160.915 643.708 161.698C646.324 162.481 648.533 163.598 650.333 165.048C652.149 166.498 653.541 168.273 654.508 170.373C655.491 172.456 655.983 174.806 655.983 177.423C655.983 180.706 655.233 183.681 653.733 186.348C652.249 188.998 650.124 191.273 647.358 193.173C644.608 195.056 641.291 196.515 637.408 197.548C633.524 198.565 629.191 199.073 624.408 199.073C619.341 199.073 614.841 198.49 610.908 197.323C606.991 196.156 603.674 194.448 600.958 192.198C598.258 189.948 596.199 187.181 594.783 183.898C593.383 180.615 592.683 176.856 592.683 172.623V172.498H610.383V173.248C610.383 174.815 610.708 176.24 611.358 177.523C612.024 178.79 612.958 179.881 614.158 180.798C615.358 181.698 616.799 182.398 618.483 182.898C620.183 183.381 622.083 183.623 624.183 183.623C626.216 183.623 628.091 183.39 629.808 182.923C631.524 182.456 633.008 181.815 634.258 180.998C635.508 180.165 636.483 179.181 637.183 178.048C637.883 176.898 638.233 175.648 638.233 174.298C638.233 172.231 637.324 170.715 635.508 169.748C633.691 168.781 630.841 168.298 626.958 168.298H615.033V154.248H626.133C627.566 154.248 628.833 154.115 629.933 153.848C631.049 153.581 631.991 153.198 632.758 152.698C633.524 152.181 634.099 151.556 634.483 150.823C634.883 150.073 635.083 149.223 635.083 148.273C635.083 147.04 634.774 145.923 634.158 144.923C633.541 143.906 632.674 143.04 631.558 142.323C630.458 141.59 629.124 141.023 627.558 140.623C626.008 140.223 624.291 140.023 622.408 140.023C620.508 140.023 618.808 140.231 617.308 140.648C615.824 141.065 614.566 141.673 613.533 142.473C612.516 143.273 611.733 144.248 611.183 145.398C610.649 146.548 610.383 147.865 610.383 149.348V149.848H592.683Z" fill="black"/>
<path d="M109.375 168.398L108.387 168.554L108.389 168.562L109.375 168.398ZM110.825 173.823L109.894 174.188L110.825 173.823ZM113.2 178.098L112.408 178.708L112.412 178.713L113.2 178.098ZM116.45 181.148L115.893 181.978L115.898 181.982L116.45 181.148ZM120.575 182.998L120.31 183.962L120.575 182.998ZM131.275 182.673L130.926 181.736L130.923 181.737L131.275 182.673ZM135.725 179.823L136.432 180.53L136.437 180.525L135.725 179.823ZM138.875 175.048L137.961 174.643L137.959 174.646L138.875 175.048ZM140.75 168.323V167.323H139.894L139.762 168.169L140.75 168.323ZM159.075 168.323L160.066 168.458L160.22 167.323H159.075V168.323ZM155.325 181.198L156.223 181.637L156.224 181.636L155.325 181.198ZM148.2 190.848L147.525 190.11L147.523 190.112L148.2 190.848ZM138.125 196.948L137.778 196.01L137.777 196.01L138.125 196.948ZM115.775 197.873L115.523 198.841L115.524 198.841L115.775 197.873ZM107.25 194.423L106.75 195.289L106.753 195.291L107.25 194.423ZM100.2 188.923L99.4765 189.613L99.4819 189.619L100.2 188.923ZM94.875 181.523L93.9915 181.991L93.9926 181.994L94.875 181.523ZM91.475 172.423L90.502 172.654L90.5032 172.659L91.475 172.423ZM91.475 151.223L90.5031 150.987L90.502 150.992L91.475 151.223ZM94.875 142.148L95.7574 142.619L95.7585 142.616L94.875 142.148ZM100.2 134.748L99.4793 134.055L99.4792 134.055L100.2 134.748ZM107.25 129.223L106.753 128.355L106.75 128.357L107.25 129.223ZM115.775 125.773L115.524 124.805L115.523 124.805L115.775 125.773ZM138.125 126.698L137.777 127.635L137.778 127.636L138.125 126.698ZM148.2 132.798L147.523 133.534L147.525 133.536L148.2 132.798ZM155.325 142.473L154.426 142.911L154.427 142.912L155.325 142.473ZM159.075 155.323V156.323H160.22L160.066 155.188L159.075 155.323ZM140.75 155.323L139.762 155.477L139.894 156.323H140.75V155.323ZM138.875 148.623L137.958 149.022L137.962 149.031L138.875 148.623ZM135.725 143.848L135.013 144.55L135.018 144.555L135.725 143.848ZM131.275 140.973L130.923 141.909L130.926 141.91L131.275 140.973ZM120.575 140.648L120.31 139.684L120.575 140.648ZM116.45 142.498L115.898 141.664L115.893 141.668L116.45 142.498ZM113.2 145.573L113.988 146.188L113.992 146.183L113.2 145.573ZM110.825 149.823L111.756 150.188L110.825 149.823ZM109.375 155.248L108.389 155.084L108.387 155.092L109.375 155.248ZM108.9 161.823H107.9C107.9 164.25 108.061 166.495 108.387 168.554L109.375 168.398L110.363 168.242C110.056 166.301 109.9 164.163 109.9 161.823H108.9ZM109.375 168.398L108.389 168.562C108.732 170.62 109.231 172.497 109.894 174.188L110.825 173.823L111.756 173.458C111.152 171.916 110.685 170.176 110.361 168.234L109.375 168.398ZM110.825 173.823L109.894 174.188C110.558 175.882 111.394 177.392 112.408 178.708L113.2 178.098L113.992 177.488C113.106 176.337 112.359 174.997 111.756 173.458L110.825 173.823ZM113.2 178.098L112.412 178.713C113.423 180.009 114.584 181.1 115.893 181.978L116.45 181.148L117.007 180.318C115.883 179.563 114.877 178.62 113.988 177.483L113.2 178.098ZM116.45 181.148L115.898 181.982C117.225 182.86 118.698 183.519 120.31 183.962L120.575 182.998L120.84 182.034C119.419 181.643 118.142 181.069 117.002 180.314L116.45 181.148ZM120.575 182.998L120.31 183.962C121.924 184.406 123.673 184.623 125.55 184.623V183.623V182.623C123.827 182.623 122.259 182.424 120.84 182.034L120.575 182.998ZM125.55 183.623V184.623C127.782 184.623 129.812 184.292 131.627 183.609L131.275 182.673L130.923 181.737C129.371 182.321 127.585 182.623 125.55 182.623V183.623ZM131.275 182.673L131.624 183.61C133.457 182.927 135.063 181.9 136.432 180.53L135.725 179.823L135.018 179.116C133.854 180.28 132.493 181.152 130.926 181.736L131.275 182.673ZM135.725 179.823L136.437 180.525C137.801 179.143 138.916 177.445 139.791 175.45L138.875 175.048L137.959 174.646C137.168 176.451 136.182 177.936 135.013 179.121L135.725 179.823ZM138.875 175.048L139.789 175.453C140.682 173.44 141.328 171.111 141.738 168.477L140.75 168.323L139.762 168.169C139.372 170.669 138.768 172.823 137.961 174.643L138.875 175.048ZM140.75 168.323V169.323H159.075V168.323V167.323H140.75V168.323ZM159.075 168.323L158.084 168.188C157.446 172.881 156.223 177.068 154.426 180.76L155.325 181.198L156.224 181.636C158.127 177.728 159.404 173.332 160.066 168.458L159.075 168.323ZM155.325 181.198L154.427 180.759C152.628 184.437 150.326 187.55 147.525 190.11L148.2 190.848L148.875 191.586C151.874 188.846 154.322 185.525 156.223 181.637L155.325 181.198ZM148.2 190.848L147.523 190.112C144.74 192.67 141.495 194.636 137.778 196.01L138.125 196.948L138.472 197.886C142.422 196.426 145.893 194.326 148.877 191.584L148.2 190.848ZM138.125 196.948L137.777 196.01C134.085 197.381 130.004 198.073 125.525 198.073V199.073V200.073C130.212 200.073 134.532 199.348 138.473 197.885L138.125 196.948ZM125.525 199.073V198.073C122.187 198.073 119.022 197.682 116.026 196.905L115.775 197.873L115.524 198.841C118.695 199.664 122.03 200.073 125.525 200.073V199.073ZM115.775 197.873L116.027 196.905C113.042 196.127 110.283 195.009 107.747 193.555L107.25 194.423L106.753 195.291C109.45 196.837 112.375 198.019 115.523 198.841L115.775 197.873ZM107.25 194.423L107.75 193.557C105.23 192.103 102.954 190.327 100.918 188.227L100.2 188.923L99.4819 189.619C101.646 191.852 104.07 193.743 106.75 195.289L107.25 194.423ZM100.2 188.923L100.923 188.233C98.9049 186.117 97.1827 183.725 95.7574 181.052L94.875 181.523L93.9926 181.994C95.5006 184.821 97.3285 187.362 99.4765 189.613L100.2 188.923ZM94.875 181.523L95.7585 181.055C94.334 178.367 93.2289 175.413 92.4469 172.187L91.475 172.423L90.5032 172.659C91.3211 176.033 92.4827 179.145 93.9915 181.991L94.875 181.523ZM91.475 172.423L92.448 172.192C91.6844 168.976 91.3 165.52 91.3 161.823H90.3H89.3C89.3 165.659 89.6989 169.27 90.502 172.654L91.475 172.423ZM90.3 161.823H91.3C91.3 158.126 91.6844 154.67 92.448 151.454L91.475 151.223L90.502 150.992C89.6989 154.376 89.3 157.987 89.3 161.823H90.3ZM91.475 151.223L92.4469 151.459C93.2288 148.233 94.3336 145.288 95.7574 142.619L94.875 142.148L93.9926 141.677C92.483 144.508 91.3212 147.613 90.5032 150.987L91.475 151.223ZM94.875 142.148L95.7585 142.616C97.1835 139.928 98.9046 137.538 100.921 135.441L100.2 134.748L99.4792 134.055C97.3288 136.291 95.4998 138.834 93.9915 141.68L94.875 142.148ZM100.2 134.748L100.921 135.441C102.956 133.325 105.232 131.542 107.75 130.089L107.25 129.223L106.75 128.357C104.068 129.904 101.644 131.804 99.4793 134.055L100.2 134.748ZM107.25 129.223L107.747 130.091C110.283 128.637 113.042 127.519 116.027 126.741L115.775 125.773L115.523 124.805C112.375 125.627 109.45 126.809 106.753 128.355L107.25 129.223ZM115.775 125.773L116.026 126.741C119.022 125.964 122.187 125.573 125.525 125.573V124.573V123.573C122.03 123.573 118.695 123.982 115.524 124.805L115.775 125.773ZM125.525 124.573V125.573C130.004 125.573 134.085 126.265 137.777 127.635L138.125 126.698L138.473 125.76C134.532 124.298 130.212 123.573 125.525 123.573V124.573ZM138.125 126.698L137.778 127.636C141.495 129.01 144.74 130.976 147.523 133.534L148.2 132.798L148.877 132.062C145.893 129.32 142.422 127.22 138.472 125.76L138.125 126.698ZM148.2 132.798L147.525 133.536C150.325 136.095 152.627 139.215 154.426 142.911L155.325 142.473L156.224 142.035C154.323 138.131 151.875 134.801 148.875 132.06L148.2 132.798ZM155.325 142.473L154.427 142.912C156.223 146.587 157.446 150.765 158.084 155.458L159.075 155.323L160.066 155.188C159.404 150.314 158.127 145.926 156.223 142.034L155.325 142.473ZM159.075 155.323V154.323H140.75V155.323V156.323H159.075V155.323ZM140.75 155.323L141.738 155.169C141.328 152.535 140.682 150.213 139.788 148.215L138.875 148.623L137.962 149.031C138.768 150.833 139.372 152.977 139.762 155.477L140.75 155.323ZM138.875 148.623L139.792 148.224C138.917 146.211 137.801 144.51 136.432 143.141L135.725 143.848L135.018 144.555C136.182 145.72 137.166 147.201 137.958 149.022L138.875 148.623ZM135.725 143.848L136.437 143.146C135.067 141.758 133.46 140.72 131.624 140.036L131.275 140.973L130.926 141.91C132.49 142.493 133.85 143.371 135.013 144.55L135.725 143.848ZM131.275 140.973L131.627 140.037C129.812 139.354 127.782 139.023 125.55 139.023V140.023V141.023C127.585 141.023 129.371 141.325 130.923 141.909L131.275 140.973ZM125.55 140.023V139.023C123.673 139.023 121.924 139.24 120.31 139.684L120.575 140.648L120.84 141.612C122.259 141.222 123.827 141.023 125.55 141.023V140.023ZM120.575 140.648L120.31 139.684C118.698 140.127 117.225 140.786 115.898 141.664L116.45 142.498L117.002 143.332C118.142 142.577 119.419 142.003 120.84 141.612L120.575 140.648ZM116.45 142.498L115.893 141.668C114.581 142.548 113.42 143.649 112.408 144.963L113.2 145.573L113.992 146.183C114.88 145.03 115.886 144.081 117.007 143.328L116.45 142.498ZM113.2 145.573L112.412 144.958C111.395 146.259 110.558 147.763 109.894 149.458L110.825 149.823L111.756 150.188C112.358 148.65 113.105 147.32 113.988 146.188L113.2 145.573ZM110.825 149.823L109.894 149.458C109.231 151.149 108.732 153.026 108.389 155.084L109.375 155.248L110.361 155.412C110.685 153.47 111.152 151.73 111.756 150.188L110.825 149.823ZM109.375 155.248L108.387 155.092C108.061 157.151 107.9 159.396 107.9 161.823H108.9H109.9C109.9 159.483 110.056 157.345 110.363 155.404L109.375 155.248ZM232.085 126.073H233.085V125.073H232.085V126.073ZM232.085 197.573V198.573H233.085V197.573H232.085ZM213.635 197.573H212.635V198.573H213.635V197.573ZM213.635 168.223L214.503 167.727L212.635 164.457V168.223H213.635ZM214.435 169.623V170.623H216.158L215.303 169.127L214.435 169.623ZM186.935 169.623L186.149 169.005L184.878 170.623H186.935V169.623ZM188.035 168.223H189.035V165.332L187.249 167.605L188.035 168.223ZM188.035 197.573V198.573H189.035V197.573H188.035ZM169.585 197.573H168.585V198.573H169.585V197.573ZM169.585 126.073V125.073H168.585V126.073H169.585ZM188.035 126.073H189.035V125.073H188.035V126.073ZM188.035 155.623L187.238 156.227L189.035 158.596V155.623H188.035ZM186.935 154.173V153.173H184.921L186.138 154.777L186.935 154.173ZM214.435 154.173L215.311 154.656L216.129 153.173H214.435V154.173ZM213.635 155.623H212.635L214.511 156.106L213.635 155.623ZM213.635 126.073V125.073H212.635V126.073H213.635ZM232.085 126.073H231.085V197.573H232.085H233.085V126.073H232.085ZM232.085 197.573V196.573H213.635V197.573V198.573H232.085V197.573ZM213.635 197.573H214.635V168.223H213.635H212.635V197.573H213.635ZM213.635 168.223L212.767 168.719L213.567 170.119L214.435 169.623L215.303 169.127L214.503 167.727L213.635 168.223ZM214.435 169.623V168.623H186.935V169.623V170.623H214.435V169.623ZM186.935 169.623L187.721 170.241L188.821 168.841L188.035 168.223L187.249 167.605L186.149 169.005L186.935 169.623ZM188.035 168.223H187.035V197.573H188.035H189.035V168.223H188.035ZM188.035 197.573V196.573H169.585V197.573V198.573H188.035V197.573ZM169.585 197.573H170.585V126.073H169.585H168.585V197.573H169.585ZM169.585 126.073V127.073H188.035V126.073V125.073H169.585V126.073ZM188.035 126.073H187.035V155.623H188.035H189.035V126.073H188.035ZM188.035 155.623L188.832 155.019L187.732 153.569L186.935 154.173L186.138 154.777L187.238 156.227L188.035 155.623ZM186.935 154.173V155.173H214.435V154.173V153.173H186.935V154.173ZM214.435 154.173L213.56 153.69L212.76 155.14L213.635 155.623L214.511 156.106L215.311 154.656L214.435 154.173ZM213.635 155.623H214.635V126.073H213.635H212.635V155.623H213.635ZM213.635 126.073V127.073H232.085V126.073V125.073H213.635V126.073ZM259.04 197.573V198.573H259.8L260.003 197.841L259.04 197.573ZM239.765 197.573L238.815 197.259L238.381 198.573H239.765V197.573ZM263.415 126.073V125.073H262.692L262.465 125.759L263.415 126.073ZM288.765 126.073L289.716 125.763L289.491 125.073H288.765V126.073ZM312.065 197.573V198.573H313.442L313.016 197.263L312.065 197.573ZM292.39 197.573L291.425 197.836L291.626 198.573H292.39V197.573ZM274.515 132.123V131.123H273.205L273.55 132.386L274.515 132.123ZM277.24 132.123L278.203 132.391L278.556 131.123H277.24V132.123ZM255.115 182.948H254.115V183.948H255.115V182.948ZM255.115 168.348V167.348H254.115V168.348H255.115ZM299.015 168.348H300.015V167.348H299.015V168.348ZM299.015 182.948V183.948H300.015V182.948H299.015ZM259.04 197.573V196.573H239.765V197.573V198.573H259.04V197.573ZM239.765 197.573L240.714 197.887L264.364 126.387L263.415 126.073L262.465 125.759L238.815 197.259L239.765 197.573ZM263.415 126.073V127.073H288.765V126.073V125.073H263.415V126.073ZM288.765 126.073L287.814 126.383L311.114 197.883L312.065 197.573L313.016 197.263L289.716 125.763L288.765 126.073ZM312.065 197.573V196.573H292.39V197.573V198.573H312.065V197.573ZM292.39 197.573L293.355 197.31L275.48 131.86L274.515 132.123L273.55 132.386L291.425 197.836L292.39 197.573ZM274.515 132.123V133.123H277.24V132.123V131.123H274.515V132.123ZM277.24 132.123L276.276 131.855L258.076 197.305L259.04 197.573L260.003 197.841L278.203 132.391L277.24 132.123ZM255.115 182.948H256.115V168.348H255.115H254.115V182.948H255.115ZM255.115 168.348V169.348H299.015V168.348V167.348H255.115V168.348ZM299.015 168.348H298.015V182.948H299.015H300.015V168.348H299.015ZM299.015 182.948V181.948H255.115V182.948V183.948H299.015V182.948ZM386.295 126.073H387.295V125.073H386.295V126.073ZM386.295 197.573V198.573H387.295V197.573H386.295ZM361.195 197.573L360.28 197.978L360.544 198.573H361.195V197.573ZM337.295 143.673L337.098 142.692L335.874 142.937L336.38 144.078L337.295 143.673ZM337.42 143.648H338.42V142.428L337.223 142.667L337.42 143.648ZM337.42 197.573V198.573H338.42V197.573H337.42ZM319.82 197.573H318.82V198.573H319.82V197.573ZM319.82 126.073V125.073H318.82V126.073H319.82ZM346.42 126.073L347.333 125.665L347.068 125.073H346.42V126.073ZM368.82 176.223L369.191 177.151L370.157 176.765L369.733 175.815L368.82 176.223ZM368.695 176.273H367.695V177.75L369.066 177.201L368.695 176.273ZM368.695 126.073V125.073H367.695V126.073H368.695ZM386.295 126.073H385.295V197.573H386.295H387.295V126.073H386.295ZM386.295 197.573V196.573H361.195V197.573V198.573H386.295V197.573ZM361.195 197.573L362.109 197.168L338.209 143.268L337.295 143.673L336.38 144.078L360.28 197.978L361.195 197.573ZM337.295 143.673L337.491 144.654L337.616 144.629L337.42 143.648L337.223 142.667L337.098 142.692L337.295 143.673ZM337.42 143.648H336.42V197.573H337.42H338.42V143.648H337.42ZM337.42 197.573V196.573H319.82V197.573V198.573H337.42V197.573ZM319.82 197.573H320.82V126.073H319.82H318.82V197.573H319.82ZM319.82 126.073V127.073H346.42V126.073V125.073H319.82V126.073ZM346.42 126.073L345.506 126.481L367.906 176.631L368.82 176.223L369.733 175.815L347.333 125.665L346.42 126.073ZM368.82 176.223L368.448 175.295L368.323 175.345L368.695 176.273L369.066 177.201L369.191 177.151L368.82 176.223ZM368.695 176.273H369.695V126.073H368.695H367.695V176.273H368.695ZM368.695 126.073V127.073H386.295V126.073V125.073H368.695V126.073ZM463.853 126.073H464.853V125.073H463.853V126.073ZM463.853 197.573V198.573H464.853V197.573H463.853ZM438.753 197.573L437.839 197.978L438.103 198.573H438.753V197.573ZM414.853 143.673L414.657 142.692L413.433 142.937L413.939 144.078L414.853 143.673ZM414.978 143.648H415.978V142.428L414.782 142.667L414.978 143.648ZM414.978 197.573V198.573H415.978V197.573H414.978ZM397.378 197.573H396.378V198.573H397.378V197.573ZM397.378 126.073V125.073H396.378V126.073H397.378ZM423.978 126.073L424.891 125.665L424.627 125.073H423.978V126.073ZM446.378 176.223L446.75 177.151L447.715 176.765L447.291 175.815L446.378 176.223ZM446.253 176.273H445.253V177.75L446.625 177.201L446.253 176.273ZM446.253 126.073V125.073H445.253V126.073H446.253ZM463.853 126.073H462.853V197.573H463.853H464.853V126.073H463.853ZM463.853 197.573V196.573H438.753V197.573V198.573H463.853V197.573ZM438.753 197.573L439.667 197.168L415.767 143.268L414.853 143.673L413.939 144.078L437.839 197.978L438.753 197.573ZM414.853 143.673L415.049 144.654L415.174 144.629L414.978 143.648L414.782 142.667L414.657 142.692L414.853 143.673ZM414.978 143.648H413.978V197.573H414.978H415.978V143.648H414.978ZM414.978 197.573V196.573H397.378V197.573V198.573H414.978V197.573ZM397.378 197.573H398.378V126.073H397.378H396.378V197.573H397.378ZM397.378 126.073V127.073H423.978V126.073V125.073H397.378V126.073ZM423.978 126.073L423.065 126.481L445.465 176.631L446.378 176.223L447.291 175.815L424.891 125.665L423.978 126.073ZM446.378 176.223L446.007 175.295L445.882 175.345L446.253 176.273L446.625 177.201L446.75 177.151L446.378 176.223ZM446.253 176.273H447.253V126.073H446.253H445.253V176.273H446.253ZM446.253 126.073V127.073H463.853V126.073V125.073H446.253V126.073ZM474.937 126.073V125.073H473.937V126.073H474.937ZM524.887 126.073H525.887V125.073H524.887V126.073ZM524.887 141.373V142.373H525.887V141.373H524.887ZM492.187 141.373L491.465 140.68L489.841 142.373H492.187V141.373ZM493.387 140.123H494.387V137.637L492.665 139.43L493.387 140.123ZM493.387 155.998L492.665 156.691L494.387 158.484V155.998H493.387ZM492.187 154.748V153.748H489.841L491.465 155.441L492.187 154.748ZM522.037 154.748H523.037V153.748H522.037V154.748ZM522.037 168.998V169.998H523.037V168.998H522.037ZM492.187 168.998L491.465 168.305L489.841 169.998H492.187V168.998ZM493.387 167.748H494.387V165.262L492.665 167.055L493.387 167.748ZM493.387 183.523L492.665 184.216L494.387 186.009V183.523H493.387ZM492.187 182.273V181.273H489.841L491.465 182.966L492.187 182.273ZM525.737 182.273H526.737V181.273H525.737V182.273ZM525.737 197.573V198.573H526.737V197.573H525.737ZM474.937 197.573H473.937V198.573H474.937V197.573ZM474.937 126.073V127.073H524.887V126.073V125.073H474.937V126.073ZM524.887 126.073H523.887V141.373H524.887H525.887V126.073H524.887ZM524.887 141.373V140.373H492.187V141.373V142.373H524.887V141.373ZM492.187 141.373L492.908 142.066L494.108 140.816L493.387 140.123L492.665 139.43L491.465 140.68L492.187 141.373ZM493.387 140.123H492.387V155.998H493.387H494.387V140.123H493.387ZM493.387 155.998L494.108 155.305L492.908 154.055L492.187 154.748L491.465 155.441L492.665 156.691L493.387 155.998ZM492.187 154.748V155.748H522.037V154.748V153.748H492.187V154.748ZM522.037 154.748H521.037V168.998H522.037H523.037V154.748H522.037ZM522.037 168.998V167.998H492.187V168.998V169.998H522.037V168.998ZM492.187 168.998L492.908 169.691L494.108 168.441L493.387 167.748L492.665 167.055L491.465 168.305L492.187 168.998ZM493.387 167.748H492.387V183.523H493.387H494.387V167.748H493.387ZM493.387 183.523L494.108 182.83L492.908 181.58L492.187 182.273L491.465 182.966L492.665 184.216L493.387 183.523ZM492.187 182.273V183.273H525.737V182.273V181.273H492.187V182.273ZM525.737 182.273H524.737V197.573H525.737H526.737V182.273H525.737ZM525.737 197.573V196.573H474.937V197.573V198.573H525.737V197.573ZM474.937 197.573H475.937V126.073H474.937H473.937V197.573H474.937ZM535.308 126.073V125.073H534.308V126.073H535.308ZM553.758 126.073H554.758V125.073H553.758V126.073ZM553.758 183.523L553.036 184.216L554.758 186.009V183.523H553.758ZM552.558 182.273V181.273H550.212L551.836 182.966L552.558 182.273ZM584.108 182.273H585.108V181.273H584.108V182.273ZM584.108 197.573V198.573H585.108V197.573H584.108ZM535.308 197.573H534.308V198.573H535.308V197.573ZM535.308 126.073V127.073H553.758V126.073V125.073H535.308V126.073ZM553.758 126.073H552.758V183.523H553.758H554.758V126.073H553.758ZM553.758 183.523L554.479 182.83L553.279 181.58L552.558 182.273L551.836 182.966L553.036 184.216L553.758 183.523ZM552.558 182.273V183.273H584.108V182.273V181.273H552.558V182.273ZM584.108 182.273H583.108V197.573H584.108H585.108V182.273H584.108ZM584.108 197.573V196.573H535.308V197.573V198.573H584.108V197.573ZM535.308 197.573H536.308V126.073H535.308H534.308V197.573H535.308ZM592.683 149.848H591.683V150.848H592.683V149.848ZM594.683 139.023L595.602 139.416L595.603 139.415L594.683 139.023ZM600.508 131.123L601.149 131.89L601.15 131.89L600.508 131.123ZM609.958 126.248L610.24 127.207L610.244 127.206L609.958 126.248ZM634.983 125.998L634.731 126.966L634.736 126.967L634.983 125.998ZM644.383 129.998L643.828 130.83V130.83L644.383 129.998ZM650.408 136.273L649.542 136.774V136.774L650.408 136.273ZM647.558 156.123L648.237 156.857L648.241 156.853L647.558 156.123ZM641.983 159.498L642.332 160.435L642.336 160.434L641.983 159.498ZM634.908 160.698H633.908V161.698H634.908V160.698ZM634.908 160.523V159.523H633.908V160.523H634.908ZM643.708 161.698L643.419 162.655L643.421 162.656L643.708 161.698ZM650.333 165.048L649.706 165.827L649.709 165.83L650.333 165.048ZM654.508 170.373L653.599 170.791L653.604 170.8L654.508 170.373ZM653.733 186.348L652.861 185.858L652.86 185.86L653.733 186.348ZM647.358 193.173L647.923 193.998L647.924 193.997L647.358 193.173ZM637.408 197.548L637.661 198.515L637.665 198.514L637.408 197.548ZM610.908 197.323L610.622 198.281L610.623 198.282L610.908 197.323ZM600.958 192.198L600.318 192.966L600.32 192.968L600.958 192.198ZM594.783 183.898L593.863 184.29L593.865 184.294L594.783 183.898ZM592.683 172.498V171.498H591.683V172.498H592.683ZM610.383 172.498H611.383V171.498H610.383V172.498ZM611.358 177.523L610.466 177.975L610.469 177.982L610.473 177.989L611.358 177.523ZM614.158 180.798L613.551 181.593L613.558 181.598L614.158 180.798ZM618.483 182.898L618.198 183.857L618.209 183.86L618.483 182.898ZM629.808 182.923L629.545 181.958L629.808 182.923ZM634.258 180.998L634.805 181.835L634.812 181.83L634.258 180.998ZM637.183 178.048L638.034 178.574L638.037 178.568L637.183 178.048ZM615.033 168.298H614.033V169.298H615.033V168.298ZM615.033 154.248V153.248H614.033V154.248H615.033ZM629.933 153.848L629.701 152.875L629.697 152.876L629.933 153.848ZM632.758 152.698L633.304 153.536L633.31 153.531L633.317 153.527L632.758 152.698ZM634.483 150.823L633.6 150.352L633.597 150.36L634.483 150.823ZM634.158 144.923L633.303 145.442L633.307 145.448L634.158 144.923ZM631.558 142.323L631.003 143.155L631.01 143.16L631.018 143.165L631.558 142.323ZM627.558 140.623L627.308 141.591L627.31 141.592L627.558 140.623ZM617.308 140.648L617.04 139.684L617.037 139.685L617.308 140.648ZM613.533 142.473L612.921 141.682L612.914 141.687L613.533 142.473ZM611.183 145.398L610.281 144.967L610.276 144.977L611.183 145.398ZM610.383 149.848V150.848H611.383V149.848H610.383ZM592.683 149.848H593.683V149.723H592.683H591.683V149.848H592.683ZM592.683 149.723H593.683C593.683 145.817 594.331 142.388 595.602 139.416L594.683 139.023L593.763 138.63C592.368 141.891 591.683 145.596 591.683 149.723H592.683ZM594.683 139.023L595.603 139.415C596.876 136.423 598.724 133.919 601.149 131.89L600.508 131.123L599.866 130.356C597.192 132.593 595.156 135.356 593.763 138.631L594.683 139.023ZM600.508 131.123L601.15 131.89C603.596 129.841 606.618 128.275 610.24 127.207L609.958 126.248L609.675 125.289C605.831 126.421 602.553 128.105 599.866 130.356L600.508 131.123ZM609.958 126.248L610.244 127.206C613.866 126.123 618.041 125.573 622.783 125.573V124.573V123.573C617.891 123.573 613.516 124.14 609.671 125.29L609.958 126.248ZM622.783 124.573V125.573C627.197 125.573 631.177 126.041 634.731 126.966L634.983 125.998L635.235 125.03C631.489 124.055 627.336 123.573 622.783 123.573V124.573ZM634.983 125.998L634.736 126.967C638.315 127.878 641.34 129.171 643.828 130.83L644.383 129.998L644.938 129.166C642.226 127.358 638.983 125.984 635.229 125.029L634.983 125.998ZM644.383 129.998L643.828 130.83C646.314 132.487 648.21 134.47 649.542 136.774L650.408 136.273L651.273 135.772C649.772 133.176 647.652 130.975 644.938 129.166L644.383 129.998ZM650.408 136.273L649.542 136.774C650.866 139.063 651.533 141.606 651.533 144.423H652.533H653.533C653.533 141.274 652.783 138.383 651.273 135.772L650.408 136.273ZM652.533 144.423H651.533C651.533 146.68 651.115 148.723 650.294 150.566L651.208 150.973L652.121 151.38C653.067 149.256 653.533 146.933 653.533 144.423H652.533ZM651.208 150.973L650.294 150.566C649.464 152.43 648.325 154.036 646.875 155.393L647.558 156.123L648.241 156.853C649.891 155.31 651.185 153.482 652.121 151.38L651.208 150.973ZM647.558 156.123L646.879 155.389C645.432 156.726 643.688 157.787 641.63 158.562L641.983 159.498L642.336 160.434C644.611 159.576 646.583 158.386 648.237 156.857L647.558 156.123ZM641.983 159.498L641.634 158.561C639.608 159.315 637.37 159.698 634.908 159.698V160.698V161.698C637.579 161.698 640.057 161.281 642.332 160.435L641.983 159.498ZM634.908 160.698H635.908V160.523H634.908H633.908V160.698H634.908ZM634.908 160.523V161.523C638.096 161.523 640.93 161.905 643.419 162.655L643.708 161.698L643.996 160.741C641.286 159.924 638.253 159.523 634.908 159.523V160.523ZM643.708 161.698L643.421 162.656C645.936 163.409 648.023 164.471 649.706 165.827L650.333 165.048L650.96 164.269C649.043 162.725 646.713 161.554 643.995 160.74L643.708 161.698ZM650.333 165.048L649.709 165.83C651.404 167.183 652.698 168.834 653.599 170.791L654.508 170.373L655.416 169.955C654.384 167.712 652.895 165.813 650.957 164.266L650.333 165.048ZM654.508 170.373L653.604 170.8C654.516 172.733 654.983 174.934 654.983 177.423H655.983H656.983C656.983 174.679 656.467 172.18 655.412 169.946L654.508 170.373ZM655.983 177.423H654.983C654.983 180.548 654.271 183.352 652.861 185.858L653.733 186.348L654.604 186.838C656.195 184.011 656.983 180.865 656.983 177.423H655.983ZM653.733 186.348L652.86 185.86C651.459 188.362 649.445 190.526 646.792 192.349L647.358 193.173L647.924 193.997C650.804 192.02 653.039 189.634 654.605 186.836L653.733 186.348ZM647.358 193.173L646.793 192.348C644.154 194.155 640.946 195.572 637.151 196.582L637.408 197.548L637.665 198.514C641.636 197.458 645.062 195.957 647.923 193.998L647.358 193.173ZM637.408 197.548L637.155 196.581C633.368 197.572 629.121 198.073 624.408 198.073V199.073V200.073C629.261 200.073 633.681 199.557 637.661 198.515L637.408 197.548ZM624.408 199.073V198.073C619.416 198.073 615.015 197.498 611.192 196.364L610.908 197.323L610.623 198.282C614.668 199.481 619.266 200.073 624.408 200.073V199.073ZM610.908 197.323L611.193 196.365C607.385 195.23 604.194 193.58 601.596 191.428L600.958 192.198L600.32 192.968C603.155 195.316 606.597 197.082 610.622 198.281L610.908 197.323ZM600.958 192.198L601.598 191.43C599.021 189.282 597.057 186.644 595.701 183.502L594.783 183.898L593.865 184.294C595.342 187.719 597.495 190.614 600.318 192.966L600.958 192.198ZM594.783 183.898L595.703 183.506C594.364 180.367 593.683 176.746 593.683 172.623H592.683H591.683C591.683 176.966 592.401 180.862 593.863 184.29L594.783 183.898ZM592.683 172.623H593.683V172.498H592.683H591.683V172.623H592.683ZM592.683 172.498V173.498H610.383V172.498V171.498H592.683V172.498ZM610.383 172.498H609.383V173.248H610.383H611.383V172.498H610.383ZM610.383 173.248H609.383C609.383 174.957 609.739 176.539 610.466 177.975L611.358 177.523L612.25 177.071C611.677 175.94 611.383 174.672 611.383 173.248H610.383ZM611.358 177.523L610.473 177.989C611.211 179.391 612.242 180.593 613.551 181.593L614.158 180.798L614.765 180.003C613.674 179.17 612.838 178.188 612.243 177.057L611.358 177.523ZM614.158 180.798L613.558 181.598C614.867 182.58 616.42 183.328 618.198 183.857L618.483 182.898L618.768 181.939C617.179 181.468 615.848 180.816 614.758 179.998L614.158 180.798ZM618.483 182.898L618.209 183.86C620.013 184.373 622.007 184.623 624.183 184.623V183.623V182.623C622.158 182.623 620.352 182.39 618.756 181.936L618.483 182.898ZM624.183 183.623V184.623C626.292 184.623 628.257 184.381 630.07 183.888L629.808 182.923L629.545 181.958C627.925 182.398 626.14 182.623 624.183 182.623V183.623ZM629.808 182.923L630.07 183.888C631.869 183.399 633.452 182.719 634.805 181.835L634.258 180.998L633.711 180.161C632.563 180.911 631.18 181.514 629.545 181.958L629.808 182.923ZM634.258 180.998L634.812 181.83C636.167 180.927 637.249 179.844 638.034 178.573L637.183 178.048L636.332 177.523C635.717 178.519 634.849 179.402 633.703 180.166L634.258 180.998ZM637.183 178.048L638.037 178.568C638.833 177.261 639.233 175.831 639.233 174.298H638.233H637.233C637.233 175.465 636.933 176.535 636.329 177.528L637.183 178.048ZM638.233 174.298H639.233C639.233 173.115 638.971 172.035 638.409 171.097C637.847 170.158 637.02 169.42 635.978 168.865L635.508 169.748L635.038 170.631C635.813 171.043 636.347 171.546 636.694 172.124C637.04 172.703 637.233 173.415 637.233 174.298H638.233ZM635.508 169.748L635.978 168.865C633.938 167.78 630.884 167.298 626.958 167.298V168.298V169.298C630.798 169.298 633.445 169.783 635.038 170.631L635.508 169.748ZM626.958 168.298V167.298H615.033V168.298V169.298H626.958V168.298ZM615.033 168.298H616.033V154.248H615.033H614.033V168.298H615.033ZM615.033 154.248V155.248H626.133V154.248V153.248H615.033V154.248ZM626.133 154.248V155.248C627.626 155.248 628.974 155.109 630.168 154.82L629.933 153.848L629.697 152.876C628.692 153.12 627.507 153.248 626.133 153.248V154.248ZM629.933 153.848L630.165 154.821C631.366 154.534 632.42 154.112 633.304 153.536L632.758 152.698L632.212 151.86C631.562 152.284 630.733 152.629 629.701 152.875L629.933 153.848ZM632.758 152.698L633.317 153.527C634.205 152.929 634.9 152.184 635.369 151.286L634.483 150.823L633.597 150.36C633.299 150.929 632.844 151.434 632.199 151.869L632.758 152.698ZM634.483 150.823L635.365 151.294C635.851 150.382 636.083 149.368 636.083 148.273H635.083H634.083C634.083 149.078 633.914 149.764 633.6 150.352L634.483 150.823ZM635.083 148.273H636.083C636.083 146.864 635.728 145.564 635.009 144.398L634.158 144.923L633.307 145.448C633.821 146.282 634.083 147.215 634.083 148.273H635.083ZM634.158 144.923L635.013 144.404C634.308 143.243 633.328 142.271 632.098 141.481L631.558 142.323L631.018 143.165C632.021 143.809 632.774 144.57 633.303 145.442L634.158 144.923ZM631.558 142.323L632.112 141.491C630.9 140.683 629.458 140.076 627.805 139.654L627.558 140.623L627.31 141.592C628.791 141.97 630.015 142.497 631.003 143.155L631.558 142.323ZM627.558 140.623L627.808 139.655C626.163 139.23 624.361 139.023 622.408 139.023V140.023V141.023C624.221 141.023 625.852 141.216 627.308 141.591L627.558 140.623ZM622.408 140.023V139.023C620.436 139.023 618.644 139.239 617.04 139.684L617.308 140.648L617.575 141.612C618.972 141.224 620.579 141.023 622.408 141.023V140.023ZM617.308 140.648L617.037 139.685C615.452 140.131 614.072 140.791 612.921 141.682L613.533 142.473L614.145 143.264C615.06 142.555 616.197 141.999 617.578 141.611L617.308 140.648ZM613.533 142.473L612.914 141.687C611.779 142.58 610.898 143.676 610.281 144.967L611.183 145.398L612.085 145.829C612.568 144.82 613.253 143.966 614.151 143.259L613.533 142.473ZM611.183 145.398L610.276 144.977C609.672 146.28 609.383 147.744 609.383 149.348H610.383H611.383C611.383 147.985 611.627 146.816 612.09 145.819L611.183 145.398ZM610.383 149.348H609.383V149.848H610.383H611.383V149.348H610.383ZM610.383 149.848V148.848H592.683V149.848V150.848H610.383V149.848Z" fill="black" mask="url(#path-1-outside-1_140_18)"/>
<circle cx="48.5" cy="160.073" r="16" stroke="black"/>
<path d="M42 159.103C37.9615 184.66 13.0577 33.5709 7 2" stroke="black" stroke-width="7"/>
<path d="M53 157.103C49.0769 182.66 24.8846 31.5709 19 0" stroke="black" stroke-width="7"/>
<path d="M66.7793 93.073H677.5C679.985 93.073 682 95.0877 682 97.573V225.073C682 227.558 679.985 229.573 677.5 229.573H66.4141C65.4804 229.573 64.5698 229.283 63.8086 228.742L14.3945 193.644C13.2063 192.8 12.5 191.433 12.5 189.975V141.769C12.5001 140.483 13.0509 139.258 14.0127 138.404L63.792 94.2078C64.6154 93.4768 65.6782 93.073 66.7793 93.073Z" stroke="black" stroke-width="3"/>
<circle cx="48.5" cy="160.073" r="15" stroke="black" stroke-width="3"/>
<path d="M21.8182 129.573C11.5953 118.289 47.6187 97.3317 52 103.78" stroke="black" stroke-width="7"/>
</g>
<defs>
<clipPath id="clip0_140_18">
<rect width="691" height="231" fill="white"/>
</clipPath>
</defs>
</svg>
